<svg width="60" height="60" viewBox="0 0 60 60" fill="none" xmlns="http://www.w3.org/2000/svg">
<path d="M23.2434 16.9412L25.0066 10.0612L25.0217 9.99124C25.16 9.32392 25.4453 8.69582 25.8569 8.15265C26.2685 7.60948 26.796 7.16489 27.401 6.85124C29.3863 5.97124 31.531 7.37124 32.2051 9.99124L34.0237 17.0812L47.898 39.6612C48.5643 40.8901 49.5366 41.926 50.7207 42.6688C51.9048 43.4117 53.2607 43.8362 54.657 43.9012H57.0211C57.5109 43.9785 57.9519 44.2424 58.2514 44.6377C58.5509 45.0329 58.6857 45.5287 58.6276 46.0212V50.303C58.6276 50.8335 58.4169 51.3422 58.0418 51.7173C57.6667 52.0923 57.158 52.303 56.6276 52.303H53.8854V48.4965H53.369C51.5386 48.4965 49.7386 48.0281 48.1403 47.1359C46.5421 46.2437 45.1987 44.9573 44.2381 43.3992L30.4471 21.0308H21.1587L22.2831 16.6578L23.2434 16.9412Z" fill="#367FDF"/>
<path d="M36.0947 42.9733L32.9366 39.2377L22.9374 22.9643V21.0308H30.4474C30.4474 21.0308 39.939 34.5745 42.9074 39.3887C44.8258 42.5002 45.8797 44.4187 47.65 45.6387C48.6531 46.5281 49.5961 47.4829 50.473 48.4969H53.8859V53.2877H41.4791L43.9262 50.303V45.901C43.9262 45.3706 43.7155 44.8619 43.3404 44.4868C42.9653 44.1117 42.4566 43.901 41.9262 43.901L36.0947 42.9733Z" fill="#CEE0F2"/>
<path d="M15.7457 21.0308H7.4939L10.3051 10.0608L10.3203 9.99081C10.4586 9.32349 10.7439 8.6954 11.1555 8.15222C11.5671 7.60905 12.0946 7.16446 12.6996 6.85081C14.6849 5.97081 16.8296 7.37081 17.5037 9.99081L19.3223 17.0808L33.1966 39.6608C33.8629 40.8896 34.8352 41.9256 36.0193 42.6684C37.2034 43.4112 38.5593 43.8357 39.9556 43.9008H41.9262C42.4566 43.9008 42.9653 44.1115 43.3404 44.4866C43.7155 44.8617 43.9262 45.3704 43.9262 45.9008V50.3026C43.9262 50.833 43.7155 51.3418 43.3404 51.7168C42.9653 52.0919 42.4566 52.3026 41.9262 52.3026H35.0218L15.7457 21.0308Z" fill="#499FE5"/>
<path d="M18.8609 31.751L12.5199 52.3026" stroke="black" stroke-width="2" stroke-linecap="round" stroke-linejoin="round"/>
<path d="M10.03 24.2428L1.37241 52.3026" stroke="black" stroke-width="2" stroke-linecap="round" stroke-linejoin="round"/>
<path d="M16.1376 27.8403H9.4257" stroke="black" stroke-width="2" stroke-linecap="round" stroke-linejoin="round"/>
<path d="M17.5954 34.2758H7.44051" stroke="black" stroke-width="2" stroke-linecap="round" stroke-linejoin="round"/>
<path d="M15.6102 40.7114H5.45531" stroke="black" stroke-width="2" stroke-linecap="round" stroke-linejoin="round"/>
<path d="M13.625 47.1469H3.47011" stroke="black" stroke-width="2" stroke-linecap="round" stroke-linejoin="round"/>
<path d="M42.119 39.962L30.447 21.031H22.115" stroke="black" stroke-width="2" stroke-linecap="round" stroke-linejoin="round"/>
<path d="M47.2028 52.3026H53.8854V48.4965H53.369C51.4315 48.4968 49.5302 47.972 47.8671 46.978" stroke="black" stroke-width="2" stroke-linecap="round" stroke-linejoin="round"/>
<path d="M23.2434 16.9412L25.0066 10.0612L25.0217 9.99124C25.16 9.32392 25.4453 8.69582 25.8569 8.15265C26.2685 7.60948 26.796 7.16489 27.401 6.85124C29.3863 5.97124 31.531 7.37124 32.2051 9.99124L34.0237 17.0812L47.898 39.6612C48.5643 40.8901 49.5366 41.926 50.7207 42.6688C51.9048 43.4117 53.2607 43.8362 54.657 43.9012H56.6276C57.158 43.9012 57.6668 44.112 58.0418 44.487C58.4169 44.8621 58.6276 45.3708 58.6276 45.9012V50.303C58.6276 50.8335 58.4169 51.3422 58.0418 51.7173C57.6668 52.0923 57.158 52.303 56.6276 52.303H53.8854" stroke="black" stroke-width="2" stroke-linecap="round" stroke-linejoin="round"/>
<path d="M15.7457 21.0308H7.49391L10.3051 10.0608L10.3203 9.99081C10.4586 9.32349 10.7439 8.6954 11.1555 8.15222C11.5671 7.60905 12.0946 7.16446 12.6996 6.85081C14.6849 5.97081 16.8296 7.37081 17.5037 9.99081L19.3223 17.0808L33.1966 39.6608C33.8629 40.8896 34.8352 41.9256 36.0193 42.6684C37.2034 43.4112 38.5593 43.8357 39.9556 43.9008H41.9262C42.4566 43.9008 42.9654 44.1115 43.3404 44.4866C43.7155 44.8617 43.9262 45.3704 43.9262 45.9008V50.3026C43.9262 50.833 43.7155 51.3418 43.3404 51.7168C42.9654 52.0919 42.4566 52.3026 41.9262 52.3026H35.0218L15.7457 21.0308Z" stroke="black" stroke-width="2" stroke-linecap="round" stroke-linejoin="round"/>
</svg>
